<svg width="81" height="81" viewBox="0 0 81 81" fill="none" xmlns="http://www.w3.org/2000/svg">
<rect x="1" y="0.746826" width="79" height="79" rx="39.5" stroke="#787880" stroke-opacity="0.2"/>
<path d="M45.8337 45.5802L40.5003 40.2468L35.167 45.5802" stroke="#414141" stroke-width="1.33333" stroke-linecap="round" stroke-linejoin="round"/>
<path d="M40.5 40.2466V52.2466" stroke="#414141" stroke-width="1.33333" stroke-linecap="round" stroke-linejoin="round"/>
<path d="M51.6866 48.7667C52.9871 48.0578 54.0144 46.9359 54.6064 45.5782C55.1985 44.2205 55.3216 42.7044 54.9562 41.269C54.5909 39.8336 53.7579 38.5607 52.5888 37.6513C51.4198 36.7419 49.9811 36.2477 48.4999 36.2467H46.8199C46.4164 34.6857 45.6642 33.2365 44.6199 32.008C43.5756 30.7796 42.2664 29.8039 40.7907 29.1542C39.3151 28.5045 37.7113 28.1979 36.1001 28.2572C34.4889 28.3166 32.912 28.7405 31.4882 29.4969C30.0643 30.2534 28.8305 31.3229 27.8794 32.6248C26.9284 33.9268 26.2849 35.4274 25.9973 37.0139C25.7096 38.6004 25.7854 40.2314 26.2189 41.7844C26.6524 43.3374 27.4323 44.7719 28.4999 45.9801" stroke="#414141" stroke-width="1.33333" stroke-linecap="round" stroke-linejoin="round"/>
<path d="M45.8337 45.5802L40.5003 40.2468L35.167 45.5802" stroke="#414141" stroke-width="1.33333" stroke-linecap="round" stroke-linejoin="round"/>
</svg>
