<svg width="100" height="36" viewBox="0 0 100 36" fill="none" xmlns="http://www.w3.org/2000/svg">
<g clip-path="url(#clip0_39_3914)">
<path d="M11.1012 4.5H0.125V30.75L11.1012 4.5Z" fill="#FA0C00"/>
<path d="M18.8242 4.5H29.7862V30.75L18.8242 4.5Z" fill="#FA0C00"/>
<path d="M14.9631 14.1748L21.9493 30.75H17.3657L15.2777 25.4728H10.165L14.9631 14.1748Z" fill="#FA0C00"/>
<path d="M47.6924 21.1932L48.9867 24.9044C49.0296 24.9973 49.094 25.0402 49.2084 25.0402H51.6968C51.8327 25.0402 51.8541 24.9759 51.8327 24.84L46.6913 10.5602C46.6699 10.4458 46.6484 10.4243 46.534 10.4243H43.445C43.3592 10.4243 43.3091 10.4887 43.3091 10.5816C43.2662 11.3324 43.2018 11.5613 43.1089 11.7829L38.5253 24.8186C38.5039 24.9759 38.5539 25.0402 38.6826 25.0402H40.9065C41.0423 25.0402 41.1067 24.9973 41.1567 24.8615L42.3795 21.1932H47.6924ZM43.0874 18.7691C43.7596 16.7383 44.6463 14.1355 45.0038 12.6482H45.0252C45.4686 14.207 46.5126 17.2961 46.9845 18.7691H43.0874Z" fill="#FA0C00"/>
<path d="M58.4429 25.262C59.7801 25.262 61.203 25.0189 62.6475 24.3968C62.7619 24.3539 62.7833 24.3038 62.7833 24.1966C62.7404 23.7961 62.6904 23.2169 62.6904 22.7736V9.33037C62.6904 9.24456 62.6904 9.20166 62.5831 9.20166H60.1591C60.0661 9.20166 60.0232 9.24456 60.0232 9.35898V13.9139C59.6442 13.871 59.3796 13.8496 59.065 13.8496C55.1536 13.8496 52.751 16.431 52.751 19.6559C52.751 23.3957 55.2179 25.262 58.4429 25.262V25.262ZM60.0232 22.7736C59.6227 22.9023 59.1794 22.9523 58.7289 22.9523C56.9556 22.9523 55.504 21.9513 55.504 19.52C55.504 17.3677 56.9985 16.0949 58.9792 16.0949C59.3796 16.0949 59.73 16.1378 60.0232 16.2522V22.7736Z" fill="#FA0C00"/>
<path d="M70.5162 13.8496C67.1769 13.8496 65.1104 16.4095 65.1104 19.5701C65.1104 22.3946 66.755 25.262 70.4662 25.262C73.6053 25.262 75.8077 22.9524 75.8077 19.4986C75.8077 16.4524 73.9414 13.8496 70.5162 13.8496ZM70.3804 16.0949C72.2681 16.0949 73.069 17.7181 73.069 19.5701C73.069 21.8583 71.8892 22.9953 70.5162 22.9953C68.8215 22.9953 67.8204 21.5723 67.8204 19.5201C67.8204 17.4106 68.8859 16.0949 70.3804 16.0949V16.0949Z" fill="#FA0C00"/>
<path d="M78.3136 9.20166C78.2206 9.20166 78.1562 9.24456 78.1562 9.35898V24.5755C78.1562 24.6399 78.2206 24.7543 78.3136 24.7758C79.379 25.1047 80.4945 25.262 81.6458 25.262C84.9422 25.262 88.1457 23.2169 88.1457 19.0981C88.1457 16.1163 86.1006 13.8496 82.8971 13.8496C82.1606 13.8496 81.4741 13.964 80.8735 14.1642L80.8449 9.38043C80.8449 9.22311 80.802 9.20166 80.6447 9.20166H78.3136ZM85.407 19.3699C85.407 21.8368 83.7194 22.9952 81.896 22.9952C81.517 22.9952 81.181 22.9738 80.8735 22.8808V16.3881C81.2239 16.2522 81.6458 16.1378 82.4252 16.1378C84.1842 16.1378 85.407 17.2533 85.407 19.3699Z" fill="#FA0C00"/>
<path d="M97.1922 20.1708C98.2791 20.1708 99.1729 20.1493 99.4804 20.0778C99.5948 20.0564 99.6377 20.0135 99.6592 19.9205C99.7235 19.6774 99.7521 19.1697 99.7521 18.5476C99.7521 16.431 98.4793 13.8496 95.19 13.8496C91.8292 13.8496 89.9629 16.5883 89.9629 19.6774C89.9629 22.4161 91.4073 25.262 95.4546 25.262C96.9705 25.262 97.9501 25.0189 98.7939 24.6185C98.8797 24.5756 98.9226 24.5041 98.9226 24.3754V22.5233C98.9226 22.4161 98.8583 22.3946 98.7939 22.4375C97.9501 22.7951 97.0349 22.9738 96.0338 22.9738C93.767 22.9738 92.7373 21.7225 92.673 20.1708H97.1922ZM92.673 18.2544C92.8517 17.1675 93.5382 15.9876 95.0756 15.9876C96.7703 15.9876 97.2136 17.4106 97.2136 18.0542C97.2136 18.0756 97.2136 18.1686 97.2136 18.233C97.1207 18.2544 96.8346 18.2544 95.9909 18.2544H92.673Z" fill="#FA0C00"/>
</g>
<defs>
<clipPath id="clip0_39_3914">
<rect width="99.75" height="36" fill="white" transform="translate(0.125)"/>
</clipPath>
</defs>
</svg>
