<svg width="83" height="36" viewBox="0 0 83 36" fill="none" xmlns="http://www.w3.org/2000/svg">
<g clip-path="url(#clip0_39_3919)">
<path fill-rule="evenodd" clip-rule="evenodd" d="M51.2012 28.355C46.4285 31.8729 39.5108 33.7498 33.5548 33.7498C25.2035 33.7498 17.6852 30.6609 11.9973 25.5236C11.5504 25.1196 11.9509 24.5691 12.4871 24.8837C18.6254 28.4551 26.2153 30.6037 34.0553 30.6037C39.3428 30.6037 45.1594 29.5098 50.5076 27.2396C51.3156 26.8964 51.9913 27.7687 51.2012 28.355Z" fill="#FF9900"/>
<path fill-rule="evenodd" clip-rule="evenodd" d="M53.1854 26.0849C52.5776 25.3055 49.1528 25.7167 47.6155 25.899C47.1472 25.9562 47.0757 25.5486 47.4975 25.2555C50.2253 23.3357 54.7012 23.8898 55.2232 24.5333C55.7451 25.1804 55.0873 29.6671 52.524 31.8085C52.1308 32.1374 51.7554 31.9623 51.9306 31.5261C52.5061 30.0889 53.7967 26.8678 53.1854 26.0849Z" fill="#FF9900"/>
<path fill-rule="evenodd" clip-rule="evenodd" d="M47.723 11.7027V9.83656C47.723 9.55413 47.9375 9.36465 48.1949 9.36465H56.5497C56.8179 9.36465 57.0324 9.55771 57.0324 9.83656V11.4346C57.0288 11.7027 56.8036 12.0531 56.4032 12.6072L52.0738 18.7885C53.6826 18.7491 55.3807 18.9887 56.8393 19.8109C57.1682 19.9968 57.2576 20.2685 57.2826 20.5366V22.5279C57.2826 22.7996 56.9823 23.1178 56.6677 22.9534C54.0973 21.6056 50.6831 21.459 47.841 22.9677C47.5514 23.125 47.2475 22.8104 47.2475 22.5387V20.6475C47.2475 20.3436 47.2511 19.8252 47.5549 19.364L52.5707 12.1711H48.2056C47.9375 12.1711 47.723 11.9816 47.723 11.7027Z" fill="#DDDDDD"/>
<path fill-rule="evenodd" clip-rule="evenodd" d="M17.2458 23.3466H14.7039C14.4608 23.3288 14.2678 23.1464 14.2499 22.9141V9.86876C14.2499 9.60778 14.468 9.40043 14.7397 9.40043H17.1099C17.3566 9.41115 17.5532 9.60063 17.5711 9.83658V11.5419H17.6176C18.236 9.89379 19.3979 9.12515 20.9638 9.12515C22.5547 9.12515 23.5485 9.89379 24.2636 11.5419C24.8785 9.89379 26.2763 9.12515 27.7742 9.12515C28.8396 9.12515 30.0051 9.56488 30.7165 10.5516C31.5209 11.6491 31.3564 13.2436 31.3564 14.6414L31.3529 22.8747C31.3529 23.1357 31.1348 23.3466 30.8631 23.3466H28.3248C28.071 23.3288 27.8672 23.125 27.8672 22.8747V15.9606C27.8672 15.4101 27.9172 14.0373 27.7957 13.5153C27.6062 12.6394 27.0378 12.3927 26.3013 12.3927C25.6864 12.3927 25.0429 12.8039 24.7819 13.4617C24.521 14.1195 24.546 15.2206 24.546 15.9606V22.8747C24.546 23.1357 24.3279 23.3466 24.0562 23.3466H21.5179C21.2605 23.3288 21.0603 23.125 21.0603 22.8747L21.0568 15.9606C21.0568 14.5056 21.2963 12.3641 19.4909 12.3641C17.664 12.3641 17.7355 14.452 17.7355 15.9606V22.8747C17.7355 23.1357 17.5175 23.3466 17.2458 23.3466Z" fill="#DDDDDD"/>
<path fill-rule="evenodd" clip-rule="evenodd" d="M64.2253 9.12515C67.9969 9.12515 70.0383 12.3641 70.0383 16.4826C70.0383 20.4616 67.7824 23.6183 64.2253 23.6183C60.5215 23.6183 58.5052 20.3794 58.5052 16.3431C58.5052 12.2819 60.5465 9.12515 64.2253 9.12515ZM64.2467 11.7886C62.3734 11.7886 62.2554 14.3411 62.2554 15.932C62.2554 17.5265 62.2304 20.9299 64.2253 20.9299C66.1951 20.9299 66.288 18.1843 66.288 16.5112C66.288 15.4101 66.2416 14.0945 65.9091 13.0505C65.6231 12.1425 65.0547 11.7886 64.2467 11.7886Z" fill="#DDDDDD"/>
<path fill-rule="evenodd" clip-rule="evenodd" d="M74.929 23.3466H72.3979C72.1441 23.3288 71.9403 23.125 71.9403 22.8747L71.9367 9.82586C71.9582 9.58633 72.1691 9.40043 72.4265 9.40043H74.7824C75.0041 9.41115 75.1864 9.56131 75.2365 9.76508V11.76H75.2829C75.9944 9.97601 76.9918 9.12515 78.7471 9.12515C79.8876 9.12515 80.9994 9.53628 81.7144 10.6624C82.3794 11.7063 82.3794 13.4617 82.3794 14.7237V22.9355C82.3508 23.1643 82.1398 23.3466 81.8896 23.3466H79.3406C79.1082 23.3288 78.9152 23.1572 78.8902 22.9355V15.8498C78.8902 14.4234 79.0546 12.3355 77.2993 12.3355C76.6808 12.3355 76.1123 12.7502 75.8299 13.3794C75.4724 14.1767 75.4259 14.9703 75.4259 15.8498V22.8747C75.4224 23.1357 75.2007 23.3466 74.929 23.3466Z" fill="#DDDDDD"/>
<path fill-rule="evenodd" clip-rule="evenodd" d="M41.0627 17.1153C41.0627 18.1056 41.0877 18.9315 40.5872 19.8109C40.1832 20.5259 39.5397 20.9657 38.8283 20.9657C37.8523 20.9657 37.2803 20.222 37.2803 19.1245C37.2803 16.958 39.2216 16.5648 41.0627 16.5648V17.1153ZM43.626 23.3109C43.458 23.461 43.2149 23.4718 43.0254 23.3717C42.1817 22.6709 42.028 22.3456 41.5668 21.6771C40.1725 23.1 39.1822 23.5254 37.3768 23.5254C35.2354 23.5254 33.573 22.2062 33.573 19.5642C33.573 17.5014 34.6884 16.0965 36.2829 15.41C37.6628 14.8023 39.5898 14.695 41.0627 14.527V14.1981C41.0627 13.5939 41.1092 12.8789 40.7517 12.357C40.4442 11.8886 39.8508 11.6956 39.3252 11.6956C38.3564 11.6956 37.4948 12.1925 37.2839 13.2221C37.241 13.4509 37.073 13.6762 36.8406 13.6869L34.3774 13.4223C34.17 13.3758 33.9377 13.2078 33.9984 12.8896C34.5633 9.90091 37.266 9 39.6827 9C40.9197 9 42.5356 9.3289 43.5116 10.2656C44.7486 11.4203 44.6306 12.9611 44.6306 14.6378V18.599C44.6306 19.7895 45.1239 20.3114 45.5887 20.9549C45.7496 21.1837 45.7853 21.459 45.578 21.6306C45.0596 22.0632 44.1372 22.8676 43.6296 23.318L43.626 23.3109Z" fill="#DDDDDD"/>
<path fill-rule="evenodd" clip-rule="evenodd" d="M7.7397 17.1153C7.7397 18.1056 7.76472 18.9314 7.26422 19.8109C6.86024 20.5259 6.22031 20.9656 5.5053 20.9656C4.52932 20.9656 3.96089 20.222 3.96089 19.1245C3.96089 16.958 5.90213 16.5648 7.7397 16.5648V17.1153ZM10.303 23.3109C10.135 23.461 9.89187 23.4717 9.70239 23.3716C8.85869 22.6709 8.70853 22.3456 8.24378 21.6771C6.84951 23.0999 5.86281 23.5254 4.05384 23.5254C1.91596 23.5254 0.25 22.2062 0.25 19.5642C0.25 17.5014 1.36899 16.0964 2.95988 15.41C4.33984 14.8023 6.26678 14.695 7.7397 14.527V14.1981C7.7397 13.5939 7.78618 12.8789 7.43225 12.357C7.12122 11.8886 6.52776 11.6956 6.00581 11.6956C5.03697 11.6956 4.17181 12.1925 3.96089 13.2221C3.91799 13.4509 3.74996 13.6761 3.52116 13.6869L1.05438 13.4223C0.847031 13.3758 0.618228 13.2078 0.675429 12.8896C1.24386 9.90091 3.94301 9 6.35974 9C7.5967 9 9.21261 9.3289 10.1886 10.2656C11.4256 11.4203 11.3076 12.9611 11.3076 14.6378V18.599C11.3076 19.7895 11.8009 20.3114 12.2657 20.9549C12.4301 21.1837 12.4659 21.459 12.2585 21.6306C11.7402 22.0632 10.8178 22.8676 10.3101 23.318L10.303 23.3109Z" fill="#DDDDDD"/>
</g>
<defs>
<clipPath id="clip0_39_3919">
<rect width="82.5" height="36" fill="white" transform="translate(0.25)"/>
</clipPath>
</defs>
</svg>
