<svg width="135" height="36" viewBox="0 0 135 36" fill="none" xmlns="http://www.w3.org/2000/svg">
<g clip-path="url(#clip0_39_3910)">
<path d="M5.58502 16.525C5.53657 16.4616 5.47259 16.4117 5.39926 16.3803C5.32593 16.3489 5.24572 16.3369 5.1664 16.3455C5.08708 16.3541 5.01132 16.383 4.94645 16.4295C4.88158 16.476 4.82979 16.5384 4.79609 16.6107L0.798481 24.6034C0.762063 24.6762 0.744869 24.7572 0.74853 24.8385C0.752191 24.9199 0.776587 24.999 0.8194 25.0683C0.862213 25.1375 0.922024 25.1947 0.993152 25.2344C1.06428 25.274 1.14437 25.2949 1.22581 25.2949H6.79227C6.88143 25.2969 6.96927 25.2731 7.04512 25.2262C7.12098 25.1793 7.18159 25.1114 7.2196 25.0307C8.42036 22.5495 7.69266 18.7768 5.58502 16.525Z" fill="url(#paint0_linear_39_3910)"/>
<path d="M8.5183 9.25543C7.52221 10.7881 6.94172 12.5534 6.83382 14.3781C6.72591 16.2029 7.09429 18.0243 7.9028 19.6637L10.5865 25.031C10.6261 25.1103 10.6871 25.1771 10.7626 25.2237C10.8381 25.2704 10.925 25.2951 11.0138 25.2951H16.5792C16.6607 25.2951 16.7408 25.2743 16.8119 25.2346C16.883 25.195 16.9428 25.1378 16.9857 25.0685C17.0285 24.9992 17.0529 24.9201 17.0565 24.8388C17.0602 24.7574 17.043 24.6765 17.0066 24.6036C17.0066 24.6036 9.51914 9.62703 9.33096 9.25243C9.29376 9.17618 9.23582 9.11196 9.16378 9.06714C9.09174 9.02232 9.00853 8.99871 8.92369 8.99903C8.83885 8.99934 8.75581 9.02356 8.68411 9.06891C8.61241 9.11426 8.55494 9.17891 8.5183 9.25543V9.25543Z" fill="#2684FF"/>
<path d="M73.7976 15.6639C73.7976 17.6431 74.7157 19.2145 78.307 19.9082C80.4496 20.358 80.8984 20.7039 80.8984 21.4181C80.8984 22.1118 80.4486 22.5608 78.9395 22.5608C77.1155 22.5281 75.328 22.0444 73.7363 21.1529V24.3766C74.8179 24.9071 76.246 25.4989 78.8987 25.4989C82.6532 25.4989 84.1428 23.8246 84.1428 21.3363L73.7976 15.6639ZM84.1428 21.3363C84.1428 18.9898 82.8981 17.8878 79.3885 17.1331C77.4501 16.7045 76.9807 16.2762 76.9807 15.6639C76.9807 14.8892 77.6745 14.5621 78.9599 14.5621C80.5108 14.5621 82.0412 15.0314 83.4898 15.6844V12.6032C82.1007 11.9709 80.5879 11.6572 79.0619 11.6851C75.5931 11.6851 73.7976 13.1949 73.7976 15.6639" fill="#0052CC"/>
<path d="M122.032 11.8892V25.2952H124.889V15.0724L126.093 17.786L130.133 25.2952H133.724V11.8892H130.868V20.5409L129.786 18.0309L126.542 11.8892H122.032Z" fill="#0052CC"/>
<path d="M103.864 11.8892H100.742V25.2952H103.864V11.8892Z" fill="#0052CC"/>
<path d="M97.1399 21.3361C97.1399 18.9896 95.8951 17.8875 92.3856 17.1328C90.4471 16.7043 89.9778 16.2759 89.9778 15.6637C89.9778 14.889 90.6715 14.5619 91.957 14.5619C93.5079 14.5619 95.0382 15.0312 96.4869 15.6842V12.6029C95.0978 11.9707 93.5849 11.657 92.059 11.6848C88.5901 11.6848 86.7946 13.1947 86.7946 15.6637C86.7946 17.6429 87.7127 19.2142 91.304 19.9079C93.4466 20.3578 93.8955 20.7036 93.8955 21.4178C93.8955 22.1115 93.4456 22.5606 91.9365 22.5606C90.1125 22.5278 88.325 22.0441 86.7334 21.1527V24.3764C87.815 24.9069 89.2431 25.4986 91.8958 25.4986C95.6502 25.4986 97.1399 23.8243 97.1399 21.3361" fill="#0052CC"/>
<path d="M49.5449 11.8892V25.2952H55.9618L56.9721 22.3976H52.6871V11.8892H49.5449Z" fill="#0052CC"/>
<path d="M36.8682 11.8892V14.7865H40.337V25.2952H43.4792V14.7865H47.1929V11.8892H36.8682Z" fill="#0052CC"/>
<path d="M32.3105 11.8892H28.1924L23.5176 25.2952H27.0876L27.7503 23.0373C29.3825 23.5166 31.1181 23.5166 32.7503 23.0373L33.413 25.2952H36.9838L32.3105 11.8892ZM30.2513 20.6198C29.6698 20.6198 29.0912 20.5366 28.5333 20.3727L30.2513 14.5223L31.9694 20.3747C31.4113 20.5379 30.8328 20.6204 30.2513 20.6198V20.6198Z" fill="#0052CC"/>
<path d="M67.0251 11.8892H62.9073L58.2324 25.2952H61.8032L62.4659 23.0373C64.0981 23.5166 65.8337 23.5166 67.4659 23.0373L68.1286 25.2952H71.6994L67.0251 11.8892ZM64.9662 20.6198C64.3846 20.6198 63.8061 20.5366 63.2481 20.3727L64.9662 14.5223L66.6842 20.3747C66.1261 20.5379 65.5476 20.6204 64.9662 20.6198Z" fill="#0052CC"/>
<path d="M115.114 11.8892H110.996L106.321 25.2952H109.892L110.555 23.0373C112.187 23.5166 113.923 23.5166 115.555 23.0373L116.217 25.2952H119.789L115.114 11.8892ZM113.054 20.6198C112.472 20.6198 111.894 20.5366 111.336 20.3727L113.054 14.5223L114.772 20.3747C114.214 20.5379 113.635 20.6204 113.054 20.6198V20.6198Z" fill="#0052CC"/>
</g>
<defs>
<linearGradient id="paint0_linear_39_3910" x1="7.77587" y1="17.7585" x2="3.5571" y2="25.0657" gradientUnits="userSpaceOnUse">
<stop stop-color="#0052CC"/>
<stop offset="0.923" stop-color="#2684FF"/>
</linearGradient>
<clipPath id="clip0_39_3910">
<rect width="133.5" height="36" fill="white" transform="translate(0.75)"/>
</clipPath>
</defs>
</svg>
