<svg width="86" height="36" viewBox="0 0 86 36" fill="none" xmlns="http://www.w3.org/2000/svg">
<g clip-path="url(#clip0_39_3925)">
<path d="M36.8032 19.2376C36.8032 23.23 33.6799 26.172 29.8469 26.172C26.0139 26.172 22.8906 23.23 22.8906 19.2376C22.8906 15.217 26.0139 12.3032 29.8469 12.3032C33.6799 12.3032 36.8032 15.217 36.8032 19.2376ZM33.758 19.2376C33.758 16.7427 31.9478 15.0357 29.8469 15.0357C27.7459 15.0357 25.9357 16.7427 25.9357 19.2376C25.9357 21.7075 27.7459 23.4395 29.8469 23.4395C31.9478 23.4395 33.758 21.7043 33.758 19.2376Z" fill="#EA4335"/>
<path d="M51.811 19.2376C51.811 23.23 48.6877 26.172 44.8547 26.172C41.0217 26.172 37.8984 23.23 37.8984 19.2376C37.8984 15.2202 41.0217 12.3032 44.8547 12.3032C48.6877 12.3032 51.811 15.217 51.811 19.2376ZM48.7658 19.2376C48.7658 16.7427 46.9557 15.0357 44.8547 15.0357C42.7538 15.0357 40.9436 16.7427 40.9436 19.2376C40.9436 21.7075 42.7538 23.4395 44.8547 23.4395C46.9557 23.4395 48.7658 21.7043 48.7658 19.2376Z" fill="#FBBC05"/>
<path d="M66.1919 12.7222V25.1715C66.1919 30.2926 63.1718 32.3842 59.6015 32.3842C56.2406 32.3842 54.2178 30.1363 53.4549 28.2979L56.1061 27.1943C56.5782 28.323 57.735 29.6548 59.5983 29.6548C61.8837 29.6548 63.3 28.2448 63.3 25.5905V24.5931H63.1937C62.5122 25.4341 61.1991 26.1689 59.5421 26.1689C56.0749 26.1689 52.8984 23.1487 52.8984 19.2626C52.8984 15.3483 56.0749 12.3032 59.5421 12.3032C61.1959 12.3032 62.509 13.0379 63.1937 13.8539H63.3V12.7253H66.1919V12.7222ZM63.5157 19.2626C63.5157 16.8209 61.8869 15.0357 59.8141 15.0357C57.7131 15.0357 55.9529 16.8209 55.9529 19.2626C55.9529 21.6793 57.7131 23.4395 59.8141 23.4395C61.8869 23.4395 63.5157 21.6793 63.5157 19.2626Z" fill="#4285F4"/>
<path d="M70.9594 5.42529V25.747H67.9893V5.42529H70.9594Z" fill="#34A853"/>
<path d="M82.5335 21.5198L84.8971 23.0955C84.1343 24.2242 82.2959 26.1688 79.1195 26.1688C75.1802 26.1688 72.2383 23.1237 72.2383 19.2344C72.2383 15.1107 75.2052 12.3 78.7787 12.3C82.3772 12.3 84.1374 15.1638 84.7126 16.7114L85.0284 17.4993L75.7586 21.3385C76.4683 22.7298 77.5719 23.4394 79.1195 23.4394C80.6702 23.4394 81.7457 22.6766 82.5335 21.5198ZM75.2584 19.025L81.4549 16.4519C81.1142 15.5859 80.0887 14.9825 78.8819 14.9825C77.3343 14.9825 75.1802 16.3487 75.2584 19.025V19.025Z" fill="#EA4335"/>
<path d="M11.6481 17.4336V14.4916H21.5619C21.6589 15.0043 21.7089 15.6109 21.7089 16.2674C21.7089 18.4747 21.1055 21.204 19.1609 23.1486C17.2694 25.1183 14.8527 26.1688 11.6512 26.1688C5.71729 26.1688 0.727539 21.3353 0.727539 15.4014C0.727539 9.46746 5.71729 4.63403 11.6512 4.63403C14.9339 4.63403 17.2725 5.92211 19.0295 7.601L16.9536 9.67693C15.6937 8.49515 13.9866 7.57599 11.6481 7.57599C7.31489 7.57599 3.92586 11.0682 3.92586 15.4014C3.92586 19.7346 7.31489 23.2268 11.6481 23.2268C14.4587 23.2268 16.0595 22.0982 17.0849 21.0727C17.9165 20.2411 18.4637 19.053 18.6794 17.4304L11.6481 17.4336V17.4336Z" fill="#4285F4"/>
</g>
<defs>
<clipPath id="clip0_39_3925">
<rect width="84.75" height="36" fill="white" transform="translate(0.625)"/>
</clipPath>
</defs>
</svg>
