<?xml version="1.0" encoding="UTF-8"?>
<svg width="41px" height="26px" viewBox="0 0 41 26" version="1.1" xmlns="http://www.w3.org/2000/svg" xmlns:xlink="http://www.w3.org/1999/xlink">
    <!-- Generator: Sketch 55.2 (78181) - https://sketchapp.com -->
    <title>logo-for-twitter</title>
    <desc>Created with Sketch.</desc>
    <g id="Page-1" stroke="none" stroke-width="1" fill="none" fill-rule="evenodd">
        <g id="Artboard" transform="translate(-1601.000000, -1029.000000)" fill-rule="nonzero">
            <g id="logo-for-twitter" transform="translate(1601.000000, 1029.000000)">
                <rect id="Rectangle-path" fill="#F16022" x="14.8555565" y="3.20546585" width="10.9738588" height="19.720337"></rect>
                <path d="M15.552378,13.0656343 C15.552378,9.06494954 17.4255622,5.50185835 20.3425211,3.20546488 C18.2092385,1.52608104 15.5175418,0.524081902 12.5919082,0.524081902 C5.6659065,0.524081902 0.0512633756,6.13910836 0.0512633756,13.0656362 C0.0512633756,19.9920565 5.6659065,25.6071867 12.5919082,25.6071867 C15.5175419,25.6071867 18.2092386,24.6051894 20.3425211,22.9258018 C17.4255622,20.6293066 15.552378,17.0663191 15.552378,13.0656343 Z" id="XMLID_107_" fill="#E91D25"></path>
                <path d="M40.6337788,13.0656343 C40.6337788,19.9920565 35.0191339,25.6071868 28.0931302,25.6071868 C25.1675002,25.6071868 22.4758035,24.6051895 20.3425211,22.9258019 C23.2595466,20.6293066 25.1326272,17.0663192 25.1326272,13.0656343 C25.1326272,9.06494944 23.2595466,5.50185835 20.3425211,3.20546488 C22.4758036,1.52608104 25.1675003,0.524081902 28.0931302,0.524081902 C35.0191339,0.524081902 40.6337788,6.13910846 40.6337788,13.0656343 Z M39.4372441,20.8371118 L39.4372441,20.43338 L39.6000384,20.43338 L39.6000384,20.3511291 L39.1854354,20.3511291 L39.1854354,20.43338 L39.3483075,20.43338 L39.3483075,20.8371118 L39.4372441,20.8371118 Z M40.2421703,20.8371118 L40.2421703,20.3503291 L40.1150825,20.3503291 L39.9689044,20.6851518 L39.8226854,20.3503291 L39.6955311,20.3503291 L39.6955311,20.8371118 L39.7852751,20.8371118 L39.7852751,20.4699236 L39.9223599,20.7864966 L40.0154117,20.7864966 L40.1524965,20.4691236 L40.1524965,20.8371118 L40.2421703,20.8371118 Z" id="Shape" fill="#F69E1E"></path>
            </g>
        </g>
    </g>
</svg>