<svg width="124" height="36" viewBox="0 0 124 36" fill="none" xmlns="http://www.w3.org/2000/svg">
<g clip-path="url(#clip0_39_3905)">
<path d="M123.393 16.3754V14.2141H120.71V10.8542L120.619 10.882L118.098 11.6533L118.049 11.6684V14.2143H114.07V12.796C114.07 12.1356 114.218 11.6302 114.509 11.2932C114.798 10.9602 115.211 10.7909 115.738 10.7909C116.117 10.7909 116.51 10.8802 116.904 11.0563L117.003 11.1005V8.8244L116.957 8.80728C116.588 8.67485 116.087 8.60815 115.466 8.60815C114.683 8.60815 113.972 8.77851 113.352 9.11614C112.731 9.45423 112.243 9.93689 111.901 10.5506C111.56 11.1635 111.387 11.8715 111.387 12.6549V14.2141H109.518V16.3754H111.387V25.4804H114.07V16.3754H118.049V22.1615C118.049 24.5445 119.173 25.7521 121.389 25.7521C121.754 25.7521 122.137 25.7094 122.529 25.6258C122.927 25.54 123.199 25.4543 123.358 25.3627L123.394 25.3418V23.1606L123.284 23.2327C123.139 23.3297 122.958 23.409 122.745 23.468C122.531 23.528 122.353 23.5581 122.215 23.5581C121.696 23.5581 121.312 23.4182 121.073 23.142C120.832 22.8634 120.71 22.3761 120.71 21.6944V16.3754H123.393ZM103.527 23.5585C102.553 23.5585 101.786 23.2356 101.245 22.5996C100.7 21.9603 100.424 21.049 100.424 19.8911C100.424 18.6964 100.7 17.7614 101.245 17.1109C101.786 16.4647 102.547 16.1367 103.505 16.1367C104.435 16.1367 105.176 16.4499 105.706 17.0682C106.239 17.6898 106.51 18.6173 106.51 19.8258C106.51 21.0492 106.256 21.989 105.754 22.6176C105.256 23.2415 104.507 23.5585 103.527 23.5585V23.5585ZM103.646 13.9427C101.789 13.9427 100.313 14.4871 99.2609 15.5607C98.2095 16.6344 97.6765 18.1203 97.6765 19.9775C97.6765 21.7415 98.1968 23.1603 99.2232 24.194C100.25 25.228 101.647 25.7518 103.375 25.7518C105.176 25.7518 106.622 25.1999 107.673 24.1114C108.725 23.0241 109.258 21.5522 109.258 19.7384C109.258 17.9469 108.758 16.5175 107.771 15.4907C106.784 14.4634 105.396 13.9427 103.646 13.9427V13.9427ZM93.351 13.9427C92.0873 13.9427 91.0419 14.266 90.2434 14.9033C89.44 15.5444 89.0325 16.3853 89.0325 17.4028C89.0325 17.9317 89.1205 18.4015 89.2935 18.8C89.4677 19.1998 89.7372 19.5518 90.0953 19.8472C90.4506 20.1403 90.9991 20.4472 91.726 20.7595C92.337 21.0109 92.7927 21.2236 93.0822 21.3912C93.3651 21.5555 93.5659 21.7207 93.6793 21.8815C93.7895 22.0389 93.8454 22.2543 93.8454 22.5201C93.8454 23.2771 93.2786 23.6454 92.1122 23.6454C91.6796 23.6454 91.1861 23.555 90.6456 23.3769C90.1089 23.2015 89.6023 22.9447 89.1436 22.6154L89.0322 22.5355V25.1184L89.0731 25.1374C89.4527 25.3127 89.9313 25.4604 90.4954 25.5767C91.0585 25.6931 91.57 25.7523 92.0144 25.7523C93.3857 25.7523 94.49 25.4275 95.2957 24.7864C96.1066 24.1409 96.5176 23.2802 96.5176 22.2275C96.5176 21.468 96.2964 20.8168 95.8603 20.2916C95.4272 19.7707 94.6755 19.2924 93.6271 18.8697C92.7919 18.5344 92.2568 18.2561 92.036 18.0425C91.8232 17.8361 91.7152 17.5442 91.7152 17.1746C91.7152 16.847 91.8485 16.5845 92.1223 16.372C92.3982 16.1583 92.7824 16.0497 93.2641 16.0497C93.7111 16.0497 94.1684 16.1203 94.6232 16.2587C95.0777 16.397 95.4769 16.5824 95.8101 16.8091L95.9198 16.884V14.4338L95.8777 14.4158C95.5702 14.2839 95.1649 14.1711 94.6724 14.0796C94.1823 13.9886 93.7377 13.9427 93.351 13.9427V13.9427ZM82.0386 23.5585C81.065 23.5585 80.2971 23.2356 79.7562 22.5996C79.2117 21.9603 78.9364 21.0492 78.9364 19.8911C78.9364 18.6964 79.212 17.7614 79.7568 17.1109C80.2977 16.4647 81.0579 16.1367 82.017 16.1367C82.9469 16.1367 83.6874 16.4499 84.218 17.0682C84.7512 17.6898 85.0217 18.6173 85.0217 19.8258C85.0217 21.0492 84.7671 21.989 84.2655 22.6176C83.7672 23.2415 83.0184 23.5585 82.0386 23.5585V23.5585ZM82.1582 13.9427C80.2999 13.9427 78.8242 14.4871 77.7727 15.5607C76.7214 16.6344 76.1879 18.1203 76.1879 19.9775C76.1879 21.7422 76.7086 23.1603 77.7351 24.194C78.7615 25.228 80.1582 25.7518 81.8864 25.7518C83.687 25.7518 85.1335 25.1999 86.1851 24.1114C87.2364 23.0241 87.7694 21.5522 87.7694 19.7384C87.7694 17.9469 87.2694 16.5175 86.2828 15.4907C85.2957 14.4634 83.9079 13.9427 82.1582 13.9427V13.9427ZM72.1155 16.1652V14.2141H69.4654V25.4802H72.1155V19.7172C72.1155 18.7372 72.3377 17.9322 72.7762 17.3241C73.209 16.7232 73.7858 16.4188 74.4901 16.4188C74.7288 16.4188 74.9967 16.4581 75.2869 16.536C75.5742 16.6134 75.7822 16.6974 75.9049 16.7859L76.0163 16.8666V14.1949L75.9734 14.1764C75.7266 14.0716 75.3774 14.0187 74.9356 14.0187C74.2697 14.0187 73.6737 14.2327 73.1632 14.654C72.7152 15.0243 72.3913 15.5321 72.1437 16.1652H72.1155ZM64.7196 13.9427C63.5038 13.9427 62.4193 14.2034 61.4969 14.7174C60.5726 15.2325 59.8578 15.9679 59.3714 16.903C58.8872 17.8359 58.6414 18.9255 58.6414 20.1407C58.6414 21.2052 58.8798 22.182 59.3509 23.043C59.8222 23.9054 60.4894 24.58 61.3339 25.0479C62.1773 25.5153 63.152 25.7522 64.2312 25.7522C65.4906 25.7522 66.5659 25.5004 67.428 25.0038L67.4629 24.9838V22.5559L67.3515 22.6372C66.961 22.9217 66.5245 23.1488 66.055 23.3124C65.5866 23.4758 65.1595 23.5585 64.7851 23.5585C63.7452 23.5585 62.9104 23.2331 62.3045 22.5916C61.6972 21.9493 61.3893 21.0473 61.3893 19.9124C61.3893 18.7703 61.7104 17.8451 62.3432 17.1625C62.9741 16.4819 63.8105 16.1367 64.8288 16.1367C65.6999 16.1367 66.5487 16.4316 67.3517 17.0141L67.4629 17.0949V14.5367L67.427 14.5164C67.1248 14.3473 66.7126 14.2076 66.2009 14.1017C65.6914 13.996 65.1931 13.9427 64.7196 13.9427V13.9427ZM56.8162 14.2143H54.1661V25.4802H56.8162V14.2143V14.2143ZM55.5183 9.41488C55.0821 9.41488 54.7017 9.56337 54.3891 9.8576C54.0753 10.1527 53.9161 10.5242 53.9161 10.9626C53.9161 11.3941 54.0734 11.7589 54.3843 12.0461C54.6931 12.3325 55.0747 12.4776 55.5184 12.4776C55.9619 12.4776 56.345 12.3325 56.6575 12.0466C56.9721 11.7589 57.1316 11.3943 57.1316 10.9626C57.1316 10.5395 56.9763 10.1718 56.6705 9.86949C56.3648 9.56777 55.977 9.41488 55.5183 9.41488ZM48.9061 13.383V25.4802H51.6106V9.75976H47.8674L43.1095 21.4364L38.4923 9.75976H34.5967V25.4801H37.1382V13.3818H37.2255L42.1012 25.4802H44.0192L48.8188 13.383H48.9061V13.383Z" fill="#DDDDDD"/>
<path d="M12.9669 16.9735H0.5V4.50659H12.9669V16.9735Z" fill="#F1511B"/>
<path d="M26.7323 16.9735H14.2656V4.50659H26.7323V16.9735Z" fill="#80CC28"/>
<path d="M12.9665 30.7431H0.5V18.2764H12.9665V30.7431Z" fill="#00ADEF"/>
<path d="M26.7323 30.7431H14.2656V18.2764H26.7323V30.7431Z" fill="#FBBC09"/>
</g>
<defs>
<clipPath id="clip0_39_3905">
<rect width="123" height="36" fill="white" transform="translate(0.5)"/>
</clipPath>
</defs>
</svg>
