<svg width="69" height="36" viewBox="0 0 69 36" fill="none" xmlns="http://www.w3.org/2000/svg">
<path d="M4.77692 22.9949C5.0608 23.7483 5.45382 24.3924 5.95605 24.9273C6.45829 25.4623 7.05329 25.8717 7.74105 26.1556C8.42889 26.4395 9.17673 26.5814 9.98465 26.5814C10.7708 26.5814 11.5077 26.434 12.1955 26.1391C12.8833 25.8443 13.4838 25.4295 13.9969 24.8946C14.51 24.3596 14.9085 23.721 15.1924 22.9785C15.4763 22.2361 15.6182 21.4065 15.6182 20.4893V6.34009H19.0572V29.2671H15.6509V27.1381C14.8867 27.946 13.9859 28.5683 12.9488 29.0051C11.9116 29.4417 10.7926 29.6601 9.59164 29.6601C8.36881 29.6601 7.22794 29.4472 6.1689 29.0214C5.10993 28.5956 4.1928 27.9897 3.4177 27.2036C2.64261 26.4175 2.03116 25.4733 1.58357 24.3705C1.1359 23.2679 0.912109 22.0397 0.912109 20.6858V6.34009H4.35115V20.4893C4.35115 21.4065 4.49305 22.2416 4.77692 22.9949Z" fill="#DDDDDD"/>
<path d="M24.9852 6.34009V14.692C25.7494 13.9278 26.6338 13.3219 27.6382 12.8743C28.6426 12.4266 29.7344 12.2028 30.9134 12.2028C32.1362 12.2028 33.2825 12.4321 34.3525 12.8906C35.4224 13.3491 36.3503 13.9714 37.1364 14.7576C37.9225 15.5437 38.5448 16.4716 39.0034 17.5415C39.4619 18.6115 39.6911 19.7469 39.6911 20.9479C39.6911 22.1487 39.4619 23.2787 39.0034 24.3377C38.5448 25.3967 37.9225 26.3193 37.1364 27.1053C36.3503 27.8914 35.4224 28.5137 34.3525 28.9722C33.2825 29.4308 32.1362 29.66 30.9134 29.66C29.7343 29.66 28.6371 29.4362 27.6218 28.9886C26.6064 28.541 25.7166 27.935 24.9524 27.1708V29.267H21.6772V6.34009H24.9852ZM25.3618 23.2078C25.6565 23.9066 26.066 24.5179 26.5901 25.042C27.1141 25.566 27.7255 25.9809 28.4242 26.2866C29.123 26.5923 29.8763 26.7452 30.6842 26.7452C31.4703 26.7452 32.2126 26.5923 32.9113 26.2866C33.6101 25.9809 34.2159 25.5661 34.7292 25.042C35.2423 24.518 35.6517 23.9066 35.9574 23.2078C36.2631 22.5091 36.4159 21.7558 36.4159 20.9479C36.4159 20.1399 36.2631 19.3812 35.9574 18.6715C35.6517 17.9619 35.2423 17.345 34.7292 16.821C34.216 16.297 33.6101 15.8875 32.9113 15.5928C32.2126 15.2981 31.4702 15.1506 30.6842 15.1506C29.8982 15.1506 29.1557 15.298 28.457 15.5928C27.7583 15.8876 27.1469 16.297 26.6228 16.821C26.0989 17.345 25.6839 17.9619 25.3783 18.6715C25.0726 19.3812 24.9197 20.1399 24.9197 20.9479C24.9197 21.7558 25.0671 22.5091 25.3618 23.2078Z" fill="#DDDDDD"/>
<path d="M41.5576 17.5743C41.9943 16.5262 42.5949 15.6037 43.359 14.8067C44.1232 14.0097 45.0294 13.382 46.0775 12.9234C47.1256 12.4649 48.2611 12.2357 49.4838 12.2357C50.6848 12.2357 51.7984 12.454 52.8247 12.8907C53.8509 13.3274 54.7352 13.9333 55.4776 14.7085C56.22 15.4836 56.7987 16.4007 57.2134 17.4597C57.6283 18.5188 57.8358 19.6706 57.8358 20.9152V21.9961H44.2434C44.3526 22.6729 44.571 23.3007 44.8985 23.8793C45.2261 24.4579 45.6354 24.9601 46.1267 25.3859C46.618 25.8117 47.1748 26.1447 47.7971 26.3848C48.4194 26.625 49.0799 26.7452 49.7786 26.7452C51.7657 26.7452 53.3706 25.9263 54.5933 24.2887L56.9843 26.0573C56.1545 27.1709 55.1283 28.0443 53.9056 28.6775C52.6828 29.3107 51.3072 29.6273 49.7787 29.6273C48.5341 29.6273 47.3714 29.4089 46.2905 28.9723C45.2097 28.5356 44.2708 27.9242 43.4738 27.1381C42.6768 26.3519 42.0491 25.4294 41.5905 24.3705C41.132 23.3115 40.9027 22.1596 40.9027 20.9151C40.9026 19.736 41.121 18.6224 41.5576 17.5743ZM46.1594 16.2805C45.2314 17.0557 44.6146 18.0874 44.3089 19.3757H54.4951C54.2112 18.0874 53.6053 17.0557 52.6772 16.2805C51.7492 15.5054 50.6629 15.1178 49.4184 15.1178C48.1737 15.1178 47.0874 15.5054 46.1594 16.2805Z" fill="#DDDDDD"/>
<path d="M64.026 16.6572C63.3273 17.4214 62.9779 18.4586 62.9779 19.7687V29.2671H59.6698V12.5632H62.9451V14.6266C63.36 13.9497 63.9004 13.4147 64.5663 13.0217C65.2323 12.6286 66.0238 12.4321 66.941 12.4321H68.0873V15.5108H66.7117C65.6199 15.5109 64.7247 15.893 64.026 16.6572Z" fill="#DDDDDD"/>
</svg>
