<svg width="80" height="80" viewBox="0 0 80 80" fill="none" xmlns="http://www.w3.org/2000/svg">
<g clip-path="url(#clip0_1210_5119)">
<path d="M45.2674 45.0176L39.9999 39.75L34.7324 45.0176" stroke="#414141" stroke-width="1.31687" stroke-linecap="round" stroke-linejoin="round"/>
<path d="M40 39.7498V51.6016" stroke="#414141" stroke-width="1.31687" stroke-linecap="round" stroke-linejoin="round"/>
<path d="M51.048 48.1646C52.3325 47.4644 53.3471 46.3564 53.9318 45.0154C54.5166 43.6745 54.6381 42.1771 54.2772 40.7594C53.9165 39.3417 53.0937 38.0845 51.9391 37.1864C50.7845 36.2882 49.3636 35.8001 47.9007 35.7991H46.2414C45.8429 34.2574 45.1 32.8261 44.0686 31.6127C43.0371 30.3995 41.7441 29.4359 40.2866 28.7942C38.8292 28.1525 37.2452 27.8497 35.6539 27.9083C34.0626 27.9669 32.5052 28.3856 31.099 29.1326C29.6927 29.8798 28.4741 30.9361 27.5347 32.2219C26.5955 33.5079 25.9599 34.9899 25.6759 36.5568C25.3917 38.1238 25.4666 39.7346 25.8947 41.2685C26.3229 42.8023 27.0931 44.2191 28.1476 45.4124" stroke="#414141" stroke-width="1.31687" stroke-linecap="round" stroke-linejoin="round"/>
<path d="M45.2674 45.0176L39.9999 39.75L34.7324 45.0176" stroke="#414141" stroke-width="1.31687" stroke-linecap="round" stroke-linejoin="round"/>
<g filter="url(#filter0_d_1210_5119)">
<rect x="0.5" y="1" width="78" height="78" rx="4.5" stroke="#525253" shape-rendering="crispEdges"/>
</g>
</g>
<defs>
<filter id="filter0_d_1210_5119" x="-4" y="0.5" width="87" height="87" filterUnits="userSpaceOnUse" color-interpolation-filters="sRGB">
<feFlood flood-opacity="0" result="BackgroundImageFix"/>
<feColorMatrix in="SourceAlpha" type="matrix" values="0 0 0 0 0 0 0 0 0 0 0 0 0 0 0 0 0 0 127 0" result="hardAlpha"/>
<feOffset dy="4"/>
<feGaussianBlur stdDeviation="2"/>
<feComposite in2="hardAlpha" operator="out"/>
<feColorMatrix type="matrix" values="0 0 0 0 0 0 0 0 0 0 0 0 0 0 0 0 0 0 0.25 0"/>
<feBlend mode="normal" in2="BackgroundImageFix" result="effect1_dropShadow_1210_5119"/>
<feBlend mode="normal" in="SourceGraphic" in2="effect1_dropShadow_1210_5119" result="shape"/>
</filter>
<clipPath id="clip0_1210_5119">
<rect width="80" height="80" fill="white"/>
</clipPath>
</defs>
</svg>
