<svg width="786" height="524" viewBox="0 0 786 524" fill="none" xmlns="http://www.w3.org/2000/svg">
<path d="M205.249 295.683C203.198 299.341 198.706 299.844 191.51 299.149C186.098 298.624 181.162 298.219 175.75 295.27C171.962 293.207 168.963 290.417 166.774 287.706C164.403 284.769 161.092 281.418 162.714 278.088C164.945 273.515 177.842 269.663 190.366 275.962C204.123 282.884 207.255 292.107 205.249 295.683Z" fill="white"/>
<path d="M616.468 271.553C608.082 277.803 594.775 274.156 594.775 274.156C594.775 274.156 595.07 260.376 603.462 254.131C611.848 247.88 625.149 251.522 625.149 251.522C625.149 251.522 624.853 265.302 616.468 271.553Z" fill="white"/>
<path d="M189.058 152.808C197.029 162.029 213.092 161.221 213.092 161.221C213.092 161.221 216.221 145.464 208.242 136.248C200.271 127.027 184.215 127.83 184.215 127.83C184.215 127.83 181.087 143.588 189.058 152.808Z" fill="white"/>
<path d="M384.182 445.991C380.384 445.991 377.304 442.914 377.304 439.117C377.304 435.32 380.384 432.243 384.182 432.243C387.981 432.243 391.061 435.32 391.061 439.117C391.061 442.914 387.981 445.991 384.182 445.991Z" fill="#D9D9D9"/>
<path d="M444.161 389.837C439.985 389.837 436.6 386.454 436.6 382.28C436.6 378.107 439.985 374.724 444.161 374.724C448.337 374.724 451.722 378.107 451.722 382.28C451.722 386.454 448.337 389.837 444.161 389.837Z" fill="#D9D9D9"/>
<path d="M592.688 158.279C589.317 158.279 586.584 155.547 586.584 152.178C586.584 148.809 589.317 146.078 592.688 146.078C596.059 146.078 598.792 148.809 598.792 152.178C598.792 155.547 596.059 158.279 592.688 158.279Z" fill="#D9D9D9"/>
<path d="M167.994 184.181C169.073 188.206 166.683 192.343 162.656 193.421C158.629 194.5 154.49 192.111 153.411 188.086C152.332 184.062 154.722 179.925 158.749 178.846C162.776 177.768 166.915 180.156 167.994 184.181Z" fill="#D9D9D9"/>
<path d="M280.963 119.404C275.416 119.404 270.92 114.91 270.92 109.367C270.92 103.823 275.416 99.3296 280.963 99.3296C286.509 99.3296 291.005 103.823 291.005 109.367C291.005 114.91 286.509 119.404 280.963 119.404Z" fill="#D9D9D9"/>
<path d="M649.765 357.897C645.498 357.897 642.04 355.131 642.04 351.72C642.04 348.309 645.498 345.544 649.765 345.544C654.031 345.544 657.49 348.309 657.49 351.72C657.49 355.131 654.031 357.897 649.765 357.897Z" fill="#D9D9D9"/>
<path d="M204.168 411.958C204.168 418.083 199.2 423.048 193.072 423.048C186.944 423.048 181.976 418.083 181.976 411.958C181.976 405.834 186.944 400.869 193.072 400.869C199.2 400.869 204.168 405.834 204.168 411.958Z" fill="#D9D9D9"/>
<path d="M575.703 342.463H575.906C577.102 359.41 589.712 359.671 589.712 359.671C589.712 359.671 575.807 359.942 575.807 379.523C575.807 359.942 561.902 359.671 561.902 359.671C561.902 359.671 574.507 359.41 575.703 342.463Z" fill="#D9D9D9"/>
<path d="M373.479 302.902H504.504M270.529 415.143H532.58C553.255 415.143 570.016 398.392 570.016 377.728V115.828C570.016 95.1647 553.255 78.4136 532.58 78.4136H345.401C324.726 78.4136 307.965 95.1647 307.965 115.828V377.728C307.965 398.392 291.204 415.143 270.529 415.143C249.853 415.143 233.094 398.392 233.094 377.728V171.95C233.094 151.286 249.853 134.536 270.529 134.536H307.965L270.529 415.143ZM373.479 153.243H504.504H373.479ZM373.479 228.072H504.504H373.479Z" stroke="#D9D9D9" stroke-width="3.6" stroke-linecap="round" stroke-linejoin="round"/>
<path fill-rule="evenodd" clip-rule="evenodd" d="M237.499 272.36C237.499 315.759 272.698 350.938 316.122 350.938C359.545 350.938 394.744 315.759 394.744 272.36C394.744 228.962 359.545 193.782 316.122 193.782C272.698 193.782 237.499 228.962 237.499 272.36Z" fill="white" stroke="#212121" stroke-width="18.0738" stroke-linecap="round" stroke-linejoin="round"/>
<path d="M220.344 368.082L253.938 334.507" stroke="#212121" stroke-width="18.0738" stroke-linecap="round" stroke-linejoin="round"/>
<path fill-rule="evenodd" clip-rule="evenodd" d="M472.352 367.497V331.27C472.353 325.281 473.925 319.398 476.911 314.206C479.898 309.015 484.195 304.697 489.373 301.684L523.626 281.76C528.858 278.718 534.803 277.116 540.856 277.116C546.908 277.116 552.853 278.718 558.085 281.76L592.338 301.684C597.518 304.696 601.817 309.013 604.805 314.205C607.793 319.396 609.365 325.28 609.366 331.27V367.497C609.365 373.485 607.793 379.369 604.807 384.56C601.82 389.751 597.524 394.069 592.346 397.083L558.092 417.007C552.86 420.049 546.916 421.651 540.863 421.651C534.81 421.651 528.865 420.049 523.634 417.007L489.38 397.083C484.2 394.071 479.901 389.754 476.913 384.562C473.925 379.37 472.353 373.486 472.352 367.497Z" fill="#212121"/>
<path d="M540.859 349.384V315.149V349.384ZM540.851 376.01C540.601 376.009 540.354 376.058 540.124 376.154C539.893 376.25 539.683 376.39 539.507 376.567C539.331 376.744 539.192 376.953 539.097 377.184C539.003 377.415 538.955 377.663 538.956 377.912C538.956 378.289 539.068 378.657 539.278 378.97C539.487 379.283 539.785 379.527 540.133 379.671C540.482 379.814 540.865 379.852 541.234 379.777C541.604 379.703 541.943 379.521 542.209 379.254C542.475 378.987 542.655 378.648 542.728 378.278C542.8 377.908 542.761 377.526 542.616 377.178C542.471 376.831 542.225 376.534 541.911 376.326C541.597 376.118 541.228 376.008 540.851 376.01Z" stroke="white" stroke-width="11.7846" stroke-linecap="round" stroke-linejoin="round"/>
</svg>
